# xmcd CD database file
#
# Track frame offsets:
#	150
#	19607
#	38399
#	66593
#	87218
#	111295
#	130453
#	150342
#	172022
#	199946
#	222756
#	246826
#	269175
#	294135
#	311676
#
# Disc length: 4438 seconds
#
# Revision: 0
# Processed by: cddbd v1.5.2PL0 Copyright (c) Steve Scherf et al.
# Submitted via: CDex 1.51
#
DISCID=d811540f
DTITLE=Michel pépé - Immensité
DYEAR=2010
DGENRE=New Age
TTITLE0=Le nouvele arc-en-ciel
TTITLE1=La clairière féerique
TTITLE2=Emerveillement
TTITLE3=Les jardins du monde
TTITLE4=Fontaines de beauté
TTITLE5=Le dôme de lumière
TTITLE6=Les mains de grâce
TTITLE7=Union céleste
TTITLE8=Le coeur des anges
TTITLE9=L'ascention
TTITLE10=Eternel enchantement
TTITLE11=Réjouissance
TTITLE12=L'éclaircie radieuse
TTITLE13=Doux elixir
TTITLE14=L'alpha et l'oméga
EXTD=YEAR: 2010
EXTT0=
EXTT1=
EXTT2=
EXTT3=
EXTT4=
EXTT5=
EXTT6=
EXTT7=
EXTT8=
EXTT9=
EXTT10=
EXTT11=
EXTT12=
EXTT13=
EXTT14=
PLAYORDER=
